PathFileType	4	(X/Y/Z)	s02c0401.trc
DataRate	CameraRate	NumFrames	NumMarkers	Units	OrigDataRate	OrigDataStartFrame	OrigNumFrames
200	200	4	50	mm	200	750	2000
Frame#	Time	racr			lacr			c7			jug			rlel			rdr			llel			ldr			s2			lic			ric			lasi			rasi			rpsi			lpsi			rgt			lgt			rth1			rth2			rth3			rth4			rlfc			rmfc			rsh1			rsh2			rsh3			rsh4			rlmal			rmmal			rtoe			rmt5			rmt1			lth1			lth2			lth4			lth3			llfc			lmfc			lsh1			lsh2			lsh3			lsh4			llmal			lmmal			lcal			ltoe			lmt5			SBIKE			LBIKE			RBIKE			
		X1	Y1	Z1	X2	Y2	Z2	X3	Y3	Z3	X4	Y4	Z4	X5	Y5	Z5	X6	Y6	Z6	X7	Y7	Z7	X8	Y8	Z8	X9	Y9	Z9	X10	Y10	Z10	X11	Y11	Z11	X12	Y12	Z12	X13	Y13	Z13	X14	Y14	Z14	X15	Y15	Z15	X16	Y16	Z16	X17	Y17	Z17	X18	Y18	Z18	X19	Y19	Z19	X20	Y20	Z20	X21	Y21	Z21	X22	Y22	Z22	X23	Y23	Z23	X24	Y24	Z24	X25	Y25	Z25	X26	Y26	Z26	X27	Y27	Z27	X28	Y28	Z28	X29	Y29	Z29	X30	Y30	Z30	X31	Y31	Z31	X32	Y32	Z32	X33	Y33	Z33	X34	Y34	Z34	X35	Y35	Z35	X36	Y36	Z36	X37	Y37	Z37	X38	Y38	Z38	X39	Y39	Z39	X40	Y40	Z40	X41	Y41	Z41	X42	Y42	Z42	X43	Y43	Z43	X44	Y44	Z44	X45	Y45	Z45	X46	Y46	Z46	X47	Y47	Z47	X48	Y48	Z48	X49	Y49	Z49	X50	Y50	Z50	
750	3.7500	660.629158	1235.873344	-181.735862	619.535364	1225.175299	-523.148569	628.108318	1276.688674	-359.706748	569.520295	1144.073635	-344.768324	562.963530	1014.560418	-56.882728	705.642615	887.003716	-128.665602	510.102682	980.377976	-625.602032	684.951391	889.622746	-525.921037	70.534312	1151.482639	-311.911716	208.894394	1108.448065	-454.585603	205.361720	1138.046108	-176.432678	242.361180	1073.883081	-428.412895	234.446113	1091.924267	-198.222750	108.173005	1192.082262	-268.896725	114.702189	1185.824578	-351.139750	153.695231	1076.328276	-122.943632	132.388901	1036.354870	-481.650579	229.815749	1038.997831	-120.460233	314.873667	1017.434921	-125.728293	379.753409	966.843870	-100.451458	328.654570	1039.025481	-154.398624	485.480158	863.080978	-130.688114	472.984498	852.008707	-244.337158	423.736000	768.457829	-124.014988	365.496852	706.038827	-150.220975	286.885799	670.773453	-145.390396	374.792369	700.753800	-187.869574	185.763224	609.777207	-155.587813	198.671064	628.388308	-236.068070	359.323355	480.614838	-192.394318	252.309292	507.370585	-135.572594	282.741417	506.748933	-243.998770	194.916429	910.091205	-505.603873	236.350836	833.046803	-502.871175	268.682723	841.250857	-486.091565	231.629386	744.320417	-502.424377	257.186724	651.337251	-476.977209	257.909577	621.032509	-380.127656	245.926775	550.496479	-503.827786	268.396443	467.836814	-491.031012	244.442811	380.058433	-493.442255	286.620326	469.975859	-454.467325	233.746945	271.550172	-480.475038	253.053592	264.261340	-407.726430	169.805747	233.875453	-442.577278	448.850787	154.061273	-443.205624	341.153208	158.013814	-506.139679	-165.208914	857.052894	-318.372710	32.850506	82.020339	-515.309037	33.173966	82.169426	-115.068801	
751	3.7550	660.816016	1235.871398	-179.987864	620.769705	1225.851008	-521.799914	629.119624	1277.216833	-358.036498	570.375728	1144.801373	-343.806277	563.363986	1013.993784	-56.534278	705.494015	886.940152	-128.777032	510.696991	981.415423	-624.573016	684.964536	889.222983	-525.514725	71.164835	1153.050044	-312.558846	209.999530	1109.408070	-454.638161	205.180346	1139.733146	-176.660603	243.266338	1074.646670	-428.364971	234.469331	1093.741124	-198.328175	108.644485	1193.741682	-269.763566	115.548809	1187.272624	-352.043806	153.368381	1078.372929	-123.220882	132.824057	1037.170789	-481.765937	229.387447	1041.173429	-120.366373	314.506586	1019.759343	-125.227784	379.060100	969.083295	-100.106888	328.377817	1041.398933	-153.845319	485.709162	865.859329	-129.421070	473.716269	854.840390	-243.093207	424.785378	770.595083	-123.114239	367.249403	707.552501	-149.513209	288.902142	671.687799	-145.010283	376.678132	702.534695	-187.117335	188.292143	609.766776	-155.623233	200.907964	628.689356	-235.791031	364.220903	484.082856	-192.195735	256.579928	508.837791	-135.495292	287.265071	508.806572	-243.848185	193.996043	910.357290	-505.932121	234.360634	832.734885	-503.322100	266.762485	840.459898	-486.575813	228.381440	744.015779	-502.988871	252.808264	650.859695	-477.195788	252.396797	621.507684	-380.602314	241.435072	550.469573	-503.934850	264.192625	467.926567	-491.359371	240.456697	380.012027	-493.686384	282.508427	470.042445	-454.716769	230.616808	271.513560	-480.834964	249.949335	263.796233	-408.645587	166.233886	235.055076	-442.695011	444.058948	151.109002	-443.169508	336.468545	156.573422	-506.059426	-165.273296	857.673898	-316.585686	32.838309	82.026169	-515.288229	33.186410	82.164465	-115.037445	
752	3.7600	661.515178	1235.754394	-179.099805	622.046778	1226.501017	-520.285624	630.200483	1277.656591	-356.354437	571.953734	1145.137584	-342.965261	561.632090	1013.252926	-56.730769	705.351447	886.888779	-128.832597	511.416356	982.390737	-623.551136	685.199415	888.690517	-524.907753	71.795292	1154.696147	-313.513638	211.125368	1110.440179	-454.695382	205.043034	1141.572179	-176.929759	244.139052	1075.629235	-428.348073	234.570749	1095.643675	-198.346989	109.076038	1195.484821	-270.589481	116.295740	1188.751014	-352.968296	153.077997	1080.502613	-123.533145	133.308109	1038.072815	-481.875787	229.017925	1043.386185	-120.295694	314.180725	1022.150918	-124.711103	378.697286	971.546865	-99.282877	328.184503	1043.711815	-153.294747	485.849736	868.558695	-128.262978	474.563225	857.552534	-241.939812	425.920185	772.502145	-122.303467	368.979464	709.400364	-148.976195	291.047943	672.665906	-144.769932	378.754197	704.495668	-186.492366	187.266150	607.170888	-160.092240	203.496376	628.944884	-235.491003	369.161338	487.292698	-192.054605	260.918509	510.104768	-135.400427	291.861205	510.680234	-243.685203	193.072971	910.733316	-506.200571	232.379834	832.527940	-503.752263	264.847481	839.769528	-486.987557	225.099235	743.855453	-503.644204	248.549543	650.482879	-477.475601	248.894968	621.121741	-380.553833	237.018474	550.669141	-504.081277	260.059984	468.098929	-491.594210	236.534428	380.388465	-494.173238	278.431684	470.250721	-455.049656	227.277871	271.856195	-481.013776	246.827595	263.505032	-409.523001	162.681290	236.366086	-442.752185	439.257793	148.369082	-443.146798	331.785929	155.343302	-506.001966	-165.301372	857.703468	-316.401784	32.838434	81.998338	-515.284515	33.190539	82.157887	-115.039424	
753	3.7650	661.759906	1235.641505	-177.364135	623.433993	1227.052856	-518.716540	631.251279	1278.035280	-354.618529	573.037149	1145.628962	-341.963638	561.058753	1012.652900	-56.743946	705.232860	886.857111	-128.853230	512.053686	983.462727	-622.616353	685.299643	888.195716	-524.516519	72.425718	1156.401118	-314.161594	212.151410	1111.647834	-454.867013	204.901939	1143.417588	-177.152302	244.999143	1076.570693	-428.341921	234.626151	1097.469339	-198.435947	109.524210	1197.236889	-271.398949	117.296338	1190.348801	-353.804677	152.808301	1082.659451	-123.810175	133.769386	1039.117457	-481.952130	228.710153	1045.636274	-120.227321	313.915591	1024.533653	-124.337722	378.387162	974.080207	-98.421778	328.124723	1046.408480	-152.383970	486.014978	871.254322	-127.164464	475.313784	860.367795	-240.761363	427.107161	774.491797	-121.498751	370.946842	710.737679	-148.336801	293.521543	673.032612	-144.855725	380.764914	706.318619	-186.006903	193.912492	609.734528	-155.351434	206.289970	628.977270	-235.457674	374.192927	490.249713	-191.865191	265.440435	511.224470	-135.287051	296.527212	512.385966	-243.629514	192.183323	911.171539	-506.454390	230.433326	832.490347	-504.184913	262.983274	839.282375	-487.402764	221.980553	743.880831	-504.216072	244.455709	650.543108	-477.621499	244.836628	620.756982	-380.475936	232.714192	551.082617	-504.230045	255.972278	468.544364	-491.929833	232.647362	380.755777	-494.454489	274.436668	470.664944	-455.359162	224.145227	272.297426	-481.467632	243.685743	263.394935	-410.348335	159.164594	237.887209	-442.858078	434.352012	145.675953	-443.032976	327.037625	154.267621	-505.954682	-165.272844	857.716962	-316.365121	32.838895	82.117704	-515.359814	33.176097	82.195067	-115.093299	
